<mxfile host="65bd71144e">
    <diagram id="qG7mWZerdyrtpDxax1y_" name="Page-1">
        <mxGraphModel dx="706" dy="519" grid="1" gridSize="10" guides="1" tooltips="1" connect="1" arrows="1" fold="1" page="1" pageScale="1" pageWidth="3300" pageHeight="4681" math="0" shadow="0">
            <root>
                <mxCell id="0"/>
                <mxCell id="1" parent="0"/>
                <mxCell id="1duBXZsOQnHNKtrOYLzU-28" value="" style="rounded=1;whiteSpace=wrap;html=1;shadow=0;glass=0;fontSize=11;fillColor=#eeeeee;strokeColor=#36393d;" parent="1" vertex="1">
                    <mxGeometry x="350" y="300" width="640" height="310" as="geometry"/>
                </mxCell>
                <mxCell id="1duBXZsOQnHNKtrOYLzU-15" style="edgeStyle=none;html=1;exitX=1;exitY=0;exitDx=0;exitDy=0;fontColor=#1D0101;shadow=0;" parent="1" source="1duBXZsOQnHNKtrOYLzU-12" edge="1">
                    <mxGeometry relative="1" as="geometry">
                        <mxPoint x="670" y="320" as="targetPoint"/>
                    </mxGeometry>
                </mxCell>
                <mxCell id="1duBXZsOQnHNKtrOYLzU-23" value="" style="rounded=0;whiteSpace=wrap;html=1;shadow=0;glass=0;fontSize=11;fillColor=#dae8fc;gradientColor=#7ea6e0;strokeColor=#6c8ebf;" parent="1" vertex="1">
                    <mxGeometry x="370" y="320" width="410" height="270" as="geometry"/>
                </mxCell>
                <mxCell id="1duBXZsOQnHNKtrOYLzU-12" value="" style="rounded=0;whiteSpace=wrap;html=1;shadow=0;glass=0;fillColor=#d5e8d4;gradientColor=#97d077;strokeColor=#82b366;" parent="1" vertex="1">
                    <mxGeometry x="380" y="330" width="270" height="250" as="geometry"/>
                </mxCell>
                <mxCell id="1duBXZsOQnHNKtrOYLzU-9" value="" style="rounded=0;whiteSpace=wrap;html=1;shadow=0;glass=0;fillColor=#f8cecc;gradientColor=#ea6b66;strokeColor=#b85450;" parent="1" vertex="1">
                    <mxGeometry x="390" y="450" width="250" height="120" as="geometry"/>
                </mxCell>
                <mxCell id="1duBXZsOQnHNKtrOYLzU-7" value="" style="rounded=0;whiteSpace=wrap;html=1;fillColor=#fff2cc;gradientColor=#ffd966;strokeColor=#d6b656;fillOpacity=100;glass=0;shadow=0;" parent="1" vertex="1">
                    <mxGeometry x="400" y="470" width="110" height="90" as="geometry"/>
                </mxCell>
                <mxCell id="1duBXZsOQnHNKtrOYLzU-8" value="&lt;font&gt;Entities&lt;/font&gt;" style="rounded=0;whiteSpace=wrap;html=1;fillColor=#ffcd28;gradientColor=#ffa500;strokeColor=#d79b00;glass=0;shadow=0;fontFamily=Helvetica;" parent="1" vertex="1">
                    <mxGeometry x="420" y="495" width="70" height="40" as="geometry"/>
                </mxCell>
                <mxCell id="1duBXZsOQnHNKtrOYLzU-10" value="&lt;font style=&quot;font-size: 12px;&quot;&gt;Interactors&lt;/font&gt;" style="rounded=0;whiteSpace=wrap;html=1;fillColor=#FF756F;gradientColor=none;strokeColor=#b85450;glass=0;shadow=0;fontFamily=Helvetica;" parent="1" vertex="1">
                    <mxGeometry x="540" y="515" width="70" height="40" as="geometry"/>
                </mxCell>
                <mxCell id="1duBXZsOQnHNKtrOYLzU-11" value="&lt;font style=&quot;&quot;&gt;Gateways&lt;/font&gt;" style="rounded=0;whiteSpace=wrap;html=1;fillColor=#FF756F;gradientColor=none;strokeColor=#b85450;glass=0;shadow=0;fontFamily=Helvetica;" parent="1" vertex="1">
                    <mxGeometry x="540" y="465" width="70" height="40" as="geometry"/>
                </mxCell>
                <mxCell id="1duBXZsOQnHNKtrOYLzU-13" value="&lt;font&gt;Gateways&lt;/font&gt;" style="rounded=0;whiteSpace=wrap;html=1;fillColor=#6D9657;gradientColor=none;strokeColor=#6c8ebf;glass=0;shadow=0;fontFamily=Helvetica;" parent="1" vertex="1">
                    <mxGeometry x="560" y="390" width="70" height="40" as="geometry"/>
                </mxCell>
                <mxCell id="1duBXZsOQnHNKtrOYLzU-14" value="&lt;font style=&quot;font-size: 12px;&quot;&gt;Controllers&lt;/font&gt;" style="rounded=0;whiteSpace=wrap;html=1;fillColor=#6D9657;gradientColor=none;strokeColor=#6c8ebf;glass=0;shadow=0;fontFamily=Helvetica;" parent="1" vertex="1">
                    <mxGeometry x="400" y="390" width="70" height="40" as="geometry"/>
                </mxCell>
                <mxCell id="1duBXZsOQnHNKtrOYLzU-18" value="&lt;span&gt;DTOs&lt;/span&gt;" style="rounded=0;whiteSpace=wrap;html=1;fillColor=#6D9657;gradientColor=none;strokeColor=#6c8ebf;glass=0;shadow=0;fontFamily=Helvetica;fontStyle=0" parent="1" vertex="1">
                    <mxGeometry x="480" y="390" width="70" height="40" as="geometry"/>
                </mxCell>
                <mxCell id="1duBXZsOQnHNKtrOYLzU-20" value="&lt;span&gt;Models&lt;/span&gt;" style="rounded=0;whiteSpace=wrap;html=1;fillColor=#6D9657;gradientColor=none;strokeColor=#6c8ebf;glass=0;shadow=0;fontFamily=Helvetica;fontStyle=0" parent="1" vertex="1">
                    <mxGeometry x="400" y="340" width="70" height="40" as="geometry"/>
                </mxCell>
                <mxCell id="1duBXZsOQnHNKtrOYLzU-21" value="&lt;span&gt;HTTP Clients&lt;/span&gt;" style="rounded=0;whiteSpace=wrap;html=1;fillColor=#6D9657;gradientColor=none;strokeColor=#6c8ebf;glass=0;shadow=0;fontFamily=Helvetica;fontStyle=0" parent="1" vertex="1">
                    <mxGeometry x="480" y="340" width="70" height="40" as="geometry"/>
                </mxCell>
                <mxCell id="1duBXZsOQnHNKtrOYLzU-22" value="&lt;span&gt;&lt;font style=&quot;font-size: 12px;&quot;&gt;Repositories&lt;/font&gt;&lt;/span&gt;" style="rounded=0;whiteSpace=wrap;html=1;fillColor=#6D9657;gradientColor=none;strokeColor=#6c8ebf;glass=0;shadow=0;fontFamily=Helvetica;fontStyle=0" parent="1" vertex="1">
                    <mxGeometry x="560" y="340" width="70" height="40" as="geometry"/>
                </mxCell>
                <mxCell id="1duBXZsOQnHNKtrOYLzU-32" value="" style="rounded=0;whiteSpace=wrap;html=1;shadow=0;glass=0;sketch=0;fontSize=11;fillColor=#f8cecc;gradientColor=#ea6b66;strokeColor=#b85450;" parent="1" vertex="1">
                    <mxGeometry x="820" y="550" width="20" height="20" as="geometry"/>
                </mxCell>
                <mxCell id="1duBXZsOQnHNKtrOYLzU-34" value="" style="rounded=0;whiteSpace=wrap;html=1;shadow=0;glass=0;sketch=0;fontSize=11;fillColor=#d5e8d4;gradientColor=#97d077;strokeColor=#82b366;" parent="1" vertex="1">
                    <mxGeometry x="820" y="452.5" width="20" height="20" as="geometry"/>
                </mxCell>
                <mxCell id="1duBXZsOQnHNKtrOYLzU-31" value="" style="rounded=0;whiteSpace=wrap;html=1;shadow=0;glass=0;sketch=0;fontSize=11;fillColor=#fff2cc;gradientColor=#ffd966;strokeColor=#d6b656;" parent="1" vertex="1">
                    <mxGeometry x="820" y="486.5" width="20" height="20" as="geometry"/>
                </mxCell>
                <mxCell id="1duBXZsOQnHNKtrOYLzU-49" value="" style="endArrow=none;html=1;shadow=0;sketch=0;strokeColor=#141414;fontFamily=Helvetica;fontSize=11;fontColor=#1D0101;entryX=0;entryY=0.5;entryDx=0;entryDy=0;strokeWidth=0.5;" parent="1" target="1duBXZsOQnHNKtrOYLzU-33" edge="1">
                    <mxGeometry width="50" height="50" relative="1" as="geometry">
                        <mxPoint x="780" y="528" as="sourcePoint"/>
                        <mxPoint x="690" y="390" as="targetPoint"/>
                    </mxGeometry>
                </mxCell>
                <mxCell id="1duBXZsOQnHNKtrOYLzU-33" value="" style="rounded=0;whiteSpace=wrap;html=1;shadow=0;glass=0;sketch=0;fontSize=11;fillColor=#dae8fc;gradientColor=#7ea6e0;strokeColor=#6c8ebf;" parent="1" vertex="1">
                    <mxGeometry x="820" y="517.5" width="20" height="20" as="geometry"/>
                </mxCell>
                <mxCell id="1duBXZsOQnHNKtrOYLzU-51" value="Interface Adapters Layer" style="text;html=1;strokeColor=none;fillColor=none;align=center;verticalAlign=middle;whiteSpace=wrap;rounded=0;shadow=0;glass=0;sketch=0;fontFamily=Helvetica;fontSize=11;fontColor=#1D0101;" parent="1" vertex="1">
                    <mxGeometry x="840" y="447.5" width="130" height="30" as="geometry"/>
                </mxCell>
                <mxCell id="1duBXZsOQnHNKtrOYLzU-59" value="&lt;font face=&quot;Lucida Console&quot;&gt;DB&lt;/font&gt;" style="shape=datastore;whiteSpace=wrap;html=1;rounded=0;shadow=0;glass=0;sketch=0;strokeColor=default;fontFamily=Helvetica;fontSize=11;fontColor=#F2F2F2;fillColor=#526C91;gradientColor=none;" parent="1" vertex="1">
                    <mxGeometry x="685.63" y="422.5" width="55" height="55" as="geometry"/>
                </mxCell>
                <mxCell id="1duBXZsOQnHNKtrOYLzU-52" value="Frameworks &amp;amp; Drivers" style="text;html=1;strokeColor=none;fillColor=none;align=center;verticalAlign=middle;whiteSpace=wrap;rounded=0;shadow=0;glass=0;sketch=0;fontFamily=Helvetica;fontSize=11;fontColor=#1D0101;" parent="1" vertex="1">
                    <mxGeometry x="840" y="512.5" width="120" height="30" as="geometry"/>
                </mxCell>
                <mxCell id="1duBXZsOQnHNKtrOYLzU-53" value="Domain Layer" style="text;html=1;strokeColor=none;fillColor=none;align=center;verticalAlign=middle;whiteSpace=wrap;rounded=0;shadow=0;glass=0;sketch=0;fontFamily=Helvetica;fontSize=11;fontColor=#1D0101;" parent="1" vertex="1">
                    <mxGeometry x="840" y="481.5" width="80" height="30" as="geometry"/>
                </mxCell>
                <mxCell id="1duBXZsOQnHNKtrOYLzU-54" value="Use Cases Layer" style="text;html=1;strokeColor=none;fillColor=none;align=center;verticalAlign=middle;whiteSpace=wrap;rounded=0;shadow=0;glass=0;sketch=0;fontFamily=Helvetica;fontSize=11;fontColor=#1D0101;" parent="1" vertex="1">
                    <mxGeometry x="840" y="545" width="100" height="30" as="geometry"/>
                </mxCell>
                <mxCell id="1duBXZsOQnHNKtrOYLzU-62" value="" style="points=[[0.03,0.03,0],[0.5,0,0],[0.97,0.03,0],[1,0.4,0],[0.97,0.745,0],[0.5,1,0],[0.03,0.745,0],[0,0.4,0]];verticalLabelPosition=bottom;sketch=0;html=1;verticalAlign=top;aspect=fixed;align=center;pointerEvents=1;shape=mxgraph.cisco19.workstation;fillColor=#526C91;strokeColor=none;rounded=0;shadow=0;glass=0;fontFamily=Helvetica;fontSize=11;fontColor=#1D0101;" parent="1" vertex="1">
                    <mxGeometry x="685.01" y="511.5" width="56.25" height="45" as="geometry"/>
                </mxCell>
                <mxCell id="1duBXZsOQnHNKtrOYLzU-63" value="" style="sketch=0;pointerEvents=1;shadow=0;dashed=0;html=1;strokeColor=#6c8ebf;fillColor=#526C91;labelPosition=center;verticalLabelPosition=bottom;verticalAlign=top;align=center;outlineConnect=0;shape=mxgraph.veeam2.restful_api;rounded=0;glass=0;fontFamily=Helvetica;fontSize=11;gradientColor=none;" parent="1" vertex="1">
                    <mxGeometry x="683.13" y="340" width="54" height="54" as="geometry"/>
                </mxCell>
                <mxCell id="1duBXZsOQnHNKtrOYLzU-43" value="" style="endArrow=none;html=1;shadow=0;sketch=0;strokeColor=#141414;fontFamily=Helvetica;fontSize=11;fontColor=#1D0101;strokeWidth=0.5;entryX=0;entryY=0.5;entryDx=0;entryDy=0;" parent="1" target="1duBXZsOQnHNKtrOYLzU-31" edge="1">
                    <mxGeometry width="50" height="50" relative="1" as="geometry">
                        <mxPoint x="510" y="500" as="sourcePoint"/>
                        <mxPoint x="810" y="520" as="targetPoint"/>
                    </mxGeometry>
                </mxCell>
                <mxCell id="1duBXZsOQnHNKtrOYLzU-44" value="" style="endArrow=none;html=1;shadow=0;sketch=0;strokeColor=#141414;fontFamily=Helvetica;fontSize=11;fontColor=#1D0101;entryX=0;entryY=0.5;entryDx=0;entryDy=0;strokeWidth=0.5;" parent="1" target="1duBXZsOQnHNKtrOYLzU-32" edge="1">
                    <mxGeometry width="50" height="50" relative="1" as="geometry">
                        <mxPoint x="640" y="560" as="sourcePoint"/>
                        <mxPoint x="690" y="390" as="targetPoint"/>
                    </mxGeometry>
                </mxCell>
                <mxCell id="1duBXZsOQnHNKtrOYLzU-48" value="" style="endArrow=none;html=1;shadow=0;sketch=0;strokeColor=#141414;fontFamily=Helvetica;fontSize=11;fontColor=#1D0101;entryX=0;entryY=0.5;entryDx=0;entryDy=0;exitX=0.996;exitY=0.212;exitDx=0;exitDy=0;exitPerimeter=0;strokeWidth=0.5;" parent="1" source="1duBXZsOQnHNKtrOYLzU-12" target="1duBXZsOQnHNKtrOYLzU-34" edge="1">
                    <mxGeometry width="50" height="50" relative="1" as="geometry">
                        <mxPoint x="640" y="440" as="sourcePoint"/>
                        <mxPoint x="690" y="390" as="targetPoint"/>
                    </mxGeometry>
                </mxCell>
                <mxCell id="1duBXZsOQnHNKtrOYLzU-66" value="&lt;font face=&quot;Lucida Console&quot;&gt;UI&lt;/font&gt;" style="text;html=1;strokeColor=none;fillColor=none;align=center;verticalAlign=middle;whiteSpace=wrap;rounded=0;shadow=0;glass=0;sketch=0;fontFamily=Helvetica;fontSize=11;fontColor=#F2F2F2;" parent="1" vertex="1">
                    <mxGeometry x="683.13" y="515" width="60" height="30" as="geometry"/>
                </mxCell>
                <mxCell id="1duBXZsOQnHNKtrOYLzU-70" value="&lt;font face=&quot;Lucida Console&quot; style=&quot;font-size: 25px;&quot;&gt;&lt;font style=&quot;font-size: 25px;&quot;&gt;Diagrama Arquitetur&lt;/font&gt;al&lt;/font&gt;" style="text;html=1;strokeColor=none;fillColor=none;align=center;verticalAlign=middle;whiteSpace=wrap;rounded=0;shadow=0;glass=0;sketch=0;fontFamily=Comic Sans MS;fontSize=11;fontColor=#000000;spacing=20;" parent="1" vertex="1">
                    <mxGeometry x="810" y="332.5" width="150" height="90" as="geometry"/>
                </mxCell>
            </root>
        </mxGraphModel>
    </diagram>
</mxfile>